:FULLY-SPECIFIED
:FORCE-ALL-JOINTS-BE-3DOF
:DEGREES
324
root 9.6816 16.4058 9.34493 6.64752 8.22678 2.78388
lfemur 23.3188 5.97236 -19.8148
ltibia 2.62082 -0 0
lfoot -0.568426 -2.92537 -0.173769
ltoes -14.086 0 0
rfemur -41.8961 1.05885 16.6698
rtibia 41.2227 -0 0
rfoot -7.4602 -0.893788 0.189539
rtoes -19.7593 0 0
lowerback -7.58328 -4.51185 -4.96223
upperback -1.22883 -5.68424 2.28274
thorax 3.68015 -2.90775 4.51356
lowerneck -19.1713 -4.72127 -12.9465
upperneck 20.9726 -6.00548 13.2028
head 10.7329 -2.28675 6.08933
lclavicle 3.5334e-14 -1.90833e-14 0
lhumerus -24.1534 -34.7165 99.4941
lradius 37.1711 -0 0
lwrist 7.3509 0 0
lhand -8.03907 -24.8977 -0.00364467
lfingers 7.12502 -0 0
lthumb 17.8696 4.277 -0.00887177
rclavicle 3.5334e-14 -1.90833e-14 0
rhumerus -49.7205 6.19843 -82.7709
rradius 31.2616 -0 0
rwrist -16.0045 0 0
rhand -28.4092 -24.489 -0.00493611
rfingers 7.12502 -0 0
rthumb -1.78115 -54.4608 -0.00478778
325
root 9.67111 16.393 9.50936 6.6846 8.43803 2.77427
lfemur 24.1296 5.92685 -19.5463
ltibia 2.09665 -0 0
lfoot -0.0506238 -3.13751 -0.14284
ltoes -14.3415 0 0
rfemur -42.068 1.10027 16.6826
rtibia 41.0533 -0 0
rfoot -7.08444 -0.574411 0.155812
rtoes -19.6419 0 0
lowerback -7.6482 -4.54484 -4.97725
upperback -1.25945 -5.72409 2.28808
thorax 3.6911 -2.92736 4.51967
lowerneck -19.0984 -4.74735 -12.9882
upperneck 20.9204 -6.04837 13.2583
head 10.7093 -2.30556 6.10829
lclavicle 3.5334e-14 -1.90833e-14 0
lhumerus -24.5665 -35.1329 99.9526
lradius 37.4816 -0 0
lwrist 7.46554 0 0
lhand -7.81353 -24.908 -0.0029966
lfingers 7.12502 -0 0
lthumb 18.0869 4.25103 -0.00729428
rclavicle 3.5334e-14 -1.90833e-14 0
rhumerus -49.795 6.16005 -82.7674
rradius 30.9906 -0 0
rwrist -15.8061 0 0
rhand -28.373 -24.5758 -0.00405855
rfingers 7.12502 -0 0
rthumb -1.74619 -54.548 -0.00393659
326
root 9.66062 16.3802 9.6738 6.72167 8.64929 2.7648
lfemur 24.9402 5.87757 -19.2786
ltibia 1.57249 -0 0
lfoot 0.46706 -3.34937 -0.109996
ltoes -14.5971 0 0
rfemur -42.2399 1.14172 16.6952
rtibia 40.8839 -0 0
rfoot -6.70889 -0.255263 0.119992
rtoes -19.5245 0 0
lowerback -7.71312 -4.57785 -4.99224
upperback -1.29008 -5.76394 2.29343
thorax 3.70206 -2.94697 4.52577
lowerneck -19.0254 -4.77337 -13.0299
upperneck 20.8682 -6.09121 13.3138
head 10.6857 -2.32437 6.12726
lclavicle 3.5334e-14 -1.90833e-14 0
lhumerus -24.9858 -35.5466 100.417
lradius 37.7921 -0 0
lwrist 7.58018 0 0
lhand -7.588 -24.9183 -0.00230809
lfingers 7.12502 -0 0
lthumb 18.3042 4.22507 -0.00561834
rclavicle 3.5334e-14 -1.90833e-14 0
rhumerus -49.8694 6.12167 -82.7637
rradius 30.7195 -0 0
rwrist -15.6078 0 0
rhand -28.3368 -24.6626 -0.00312616
rfingers 7.12502 -0 0
rthumb -1.71123 -54.6351 -0.00303221
327
root 9.65013 16.3673 9.83823 6.75872 8.86056 2.75545
lfemur 25.7504 5.82452 -19.0116
ltibia 1.04833 -0 0
lfoot 0.984617 -3.56092 -0.0752385
ltoes -14.8527 0 0
rfemur -42.4118 1.18322 16.7077
rtibia 40.7145 -0 0
rfoot -6.33353 0.0636427 0.0820816
rtoes -19.4071 0 0
lowerback -7.77803 -4.61088 -5.00719
upperback -1.32071 -5.80378 2.29881
thorax 3.71301 -2.96657 4.53187
lowerneck -18.9524 -4.79934 -13.0716
upperneck 20.816 -6.13401 13.3694
head 10.6621 -2.34317 6.14624
lclavicle 3.5334e-14 -1.90833e-14 0
lhumerus -25.4113 -35.9574 100.888
lradius 38.1025 -0 0
lwrist 7.69482 0 0
lhand -7.36246 -24.9286 -0.00157915
lfingers 7.12502 -0 0
lthumb 18.5214 4.19912 -0.00384396
rclavicle 3.5334e-14 -1.90833e-14 0
rhumerus -49.9439 6.0833 -82.7601
rradius 30.4485 -0 0
rwrist -15.4094 0 0
rhand -28.3006 -24.7493 -0.00213893
rfingers 7.12502 -0 0
rthumb -1.67627 -54.7223 -0.00207466
328
root 9.63964 16.3545 10.0027 6.79576 9.07183 2.74625
lfemur 26.5603 5.76772 -18.7454
ltibia 0.524163 -0 0
lfoot 1.50204 -3.77215 -0.0385721
ltoes -15.1082 0 0
rfemur -42.5836 1.22474 16.7201
rtibia 40.5452 -0 0
rfoot -5.9584 0.382293 0.0420832
rtoes -19.2897 0 0
lowerback -7.84293 -4.64393 -5.0221
upperback -1.35135 -5.84362 2.30422
thorax 3.72395 -2.98618 4.53797
lowerneck -18.8793 -4.82526 -13.1133
upperneck 20.7637 -6.17675 13.425
head 10.6385 -2.36196 6.16522
lclavicle 3.5334e-14 -1.90833e-14 0
lhumerus -25.8433 -36.3654 101.365
lradius 38.413 -0 0
lwrist 7.80946 0 0
lhand -7.13693 -24.9388 -0.00080978
lfingers 7.12502 -0 0
lthumb 18.7387 4.17317 -0.00197117
rclavicle 3.5334e-14 -1.90833e-14 0
rhumerus -50.0183 6.04494 -82.7564
rradius 30.1774 -0 0
rwrist -15.2111 0 0
rhand -28.2644 -24.8361 -0.00109688
rfingers 7.12502 -0 0
rthumb -1.64131 -54.8094 -0.00106392
329
root 9.62915 16.3417 10.1671 6.83279 9.28311 2.73717
lfemur 27.3698 5.70719 -18.4801
ltibia 6.36111e-15 0 0
lfoot 2.01933 -3.98304 0
ltoes -15.3638 0 0
rfemur -42.7555 1.26631 16.7323
rtibia 40.3758 0 0
rfoot -5.58349 0.700675 0
rtoes -19.1723 0 0
lowerback -7.90783 -4.67699 -5.03697
upperback -1.382 -5.88346 2.30964
thorax 3.7349 -3.00579 4.54406
lowerneck -18.8063 -4.85112 -13.1551
upperneck 20.7113 -6.21944 13.4807
head 10.6149 -2.38074 6.18421
lclavicle 3.5334e-14 -1.90833e-14 0
lhumerus -26.2818 -36.7705 101.848
lradius 38.7235 0 0
lwrist 7.9241 0 0
lhand -6.91139 -24.9491 0
lfingers 7.12502 0 0
lthumb 18.956 4.14723 0
rclavicle 3.5334e-14 -1.90833e-14 0
rhumerus -50.0928 6.00658 -82.7526
rradius 29.9064 0 0
rwrist -15.0127 0 0
rhand -28.2282 -24.9229 0
rfingers 7.12502 0 0
rthumb -1.60635 -54.8966 0
